# xmcd
#
# Track frame offsets:
# 150
# 18484
# 32850
# 46095
# 60045
# 75262
# 89437
# 103710
# 117219
# 135192
# 149416
# 163626
# 176194
# 189974
# 205229
# 221574
# 233802
# 246159
# 258713
# 271142
# 287140
# 298997
# 315064
# 326650
#
# Disc length: 4509 seconds
#
#
# Revision: 0
# Processed by: cddbd v1.5.2PL0 Copyright (c) Steve Scherf et al.
# Submitted via: FreeRIP 2.945 
#
DISCID=52119b18
DTITLE=Cooper-JF1826 - Last-Mohicans12
DYEAR=1826
DGENRE=Native American
TTITLE0=LM 1201
TTITLE1=LM 1202
TTITLE2=LM 1203
TTITLE3=LM 1204
TTITLE4=LM 1204
TTITLE5=LM 1206
TTITLE6=LM 1207
TTITLE7=LM 1208
TTITLE8=LM 1209
TTITLE9=LM 1210
TTITLE10=LM 1211
TTITLE11=LM 1212
TTITLE12=LM 1213
TTITLE13=LM 1214
TTITLE14=LM 1215
TTITLE15=LM 1216
TTITLE16=LM 1217
TTITLE17=LM 1218
TTITLE18=LM 1219
TTITLE19=LM 1220
TTITLE20=LM 1221
TTITLE21=LM 1222
TTITLE22=LM 1223
TTITLE23=LM 1224
EXTD=The Last of the Mohicans Tantor Media\nby James Finimore Cooper 12 CDs\nread by William Costello native country
EXTT0=
EXTT1=
EXTT2=
EXTT3=
EXTT4=
EXTT5=
EXTT6=
EXTT7=
EXTT8=
EXTT9=
EXTT10=
EXTT11=
EXTT12=
EXTT13=
EXTT14=
EXTT15=
EXTT16=
EXTT17=
EXTT18=
EXTT19=
EXTT20=
EXTT21=
EXTT22=
EXTT23=
PLAYORDER=
